<svg width="12" height="14" viewBox="0 0 12 14" fill="none" xmlns="http://www.w3.org/2000/svg">
<path fill-rule="evenodd" clip-rule="evenodd" d="M8.34479 0.958172C9.12262 0.858708 9.90956 1.17678 10.7092 1.92915L10.7101 1.93002C11.5124 2.68875 11.8776 3.45841 11.8228 4.24233C11.7699 4.99983 11.3307 5.64097 10.83 6.17001M10.83 6.17001L5.35937 11.9605C5.20515 12.1284 4.99749 12.2706 4.80062 12.3759C4.60123 12.4825 4.37059 12.5738 4.15406 12.6122L4.15073 12.6128L2.00483 12.9794C1.48445 13.0691 0.985453 12.939 0.629984 12.6019C0.275015 12.2653 0.118157 11.7744 0.176267 11.2514L0.176438 11.2499L0.424173 9.08054C0.452946 8.86474 0.533089 8.63122 0.627562 8.42864C0.721694 8.22679 0.850129 8.01276 1.00212 7.85096L1.00309 7.84993L6.47643 2.05659C6.97745 1.52734 7.59314 1.05429 8.34479 0.958172M7.20298 2.7437C7.2029 2.74379 7.20306 2.74362 7.20298 2.7437L1.73097 8.53564C1.73085 8.53576 1.73108 8.53552 1.73097 8.53564C1.67632 8.59395 1.60125 8.70678 1.53386 8.85129C1.46768 8.99319 1.42794 9.12446 1.41602 9.20884L1.17015 11.3618C1.17013 11.3621 1.1701 11.3623 1.17007 11.3625C1.14174 11.6192 1.22149 11.7847 1.3181 11.8763C1.4143 11.9676 1.58197 12.0375 1.83492 11.9939L1.83569 11.9938L3.98043 11.6274C4.06395 11.6123 4.19262 11.567 4.32913 11.494C4.46752 11.42 4.57162 11.3402 4.62373 11.2831L4.6297 11.2765L10.1031 5.48326C10.5489 5.01236 10.7966 4.58326 10.8253 4.1726C10.8521 3.78829 10.6941 3.29146 10.0235 2.6571C9.35667 2.02977 8.85373 1.90123 8.47163 1.95009C8.06335 2.0023 7.64853 2.27312 7.20298 2.7437Z" fill="black"/>
</svg>
